<svg xmlns="http://www.w3.org/2000/svg" width="430" height="430" style="width:100%;height:100%;transform:translate3d(0,0,0);content-visibility:visible" viewBox="0 0 430 430"><defs><clipPath id="g"><path d="M0 0h430v430H0z"/></clipPath><clipPath id="l"><path d="M0 0h430v430H0z"/></clipPath><clipPath id="n"><path d="M0 0h430v430H0z"/></clipPath><clipPath id="j"><path d="M0 0h430v430H0z"/></clipPath><clipPath id="h"><path d="M0 0h430v430H0z"/></clipPath><filter id="a" width="100%" height="100%" x="0%" y="0%" filterUnits="objectBoundingBox"><feComponentTransfer in="SourceGraphic"><feFuncA tableValues="1.0 0.0" type="table"/></feComponentTransfer></filter><filter id="c" width="100%" height="100%" x="0%" y="0%" filterUnits="objectBoundingBox"><feComponentTransfer in="SourceGraphic"><feFuncA tableValues="1.0 0.0" type="table"/></feComponentTransfer></filter><filter id="e" width="100%" height="100%" x="0%" y="0%" filterUnits="objectBoundingBox"><feComponentTransfer in="SourceGraphic"><feFuncA tableValues="1.0 0.0" type="table"/></feComponentTransfer></filter><path id="b" style="display:none"/><path id="d" fill="red" d="M394.625 300.362h-110l.625 65.25c0 9.941 9.308 19.25 19.25 19.25H376c9.942 0 19.25-10.058 19.25-20z" style="display:block"/><path id="f" style="display:none"/><mask id="m" mask-type="alpha"><g filter="url(#a)"><path fill="#fff" d="M0 0h430v430H0z" opacity="0"/><use xmlns:ns1="http://www.w3.org/1999/xlink" ns1:href="#b"/></g></mask><mask id="k" mask-type="alpha"><g filter="url(#c)"><path fill="#fff" d="M0 0h430v430H0z" opacity="0"/><use xmlns:ns2="http://www.w3.org/1999/xlink" ns2:href="#d"/></g></mask><mask id="i" mask-type="alpha"><g filter="url(#e)"><path fill="#fff" d="M0 0h430v430H0z" opacity="0"/><use xmlns:ns3="http://www.w3.org/1999/xlink" ns3:href="#f"/></g></mask></defs><g fill="none" clip-path="url(#g)"><g clip-path="url(#h)" style="display:none"><g mask="url(#i)" style="display:none"><path class="secondary"/><path class="primary"/></g><path class="primary" style="display:none"/><path class="primary" style="display:none"/><path class="primary" style="display:none"/><g style="display:none"><path class="primary"/><path class="primary"/></g><path class="secondary" style="display:none"/></g><g stroke-linejoin="round" clip-path="url(#j)" style="display:block"><g stroke-linecap="round" mask="url(#k)" style="display:block"><path stroke="#08A88A" stroke-width="15" d="M142.864 80.567H143m-56.432 0h.136m28.012 0h.136" class="secondary"/><path stroke="#121331" stroke-width="12" d="M352.712 375.12H77.288c-12.375 0-22.407-10.033-22.407-22.408V77.288c0-12.375 10.032-22.407 22.407-22.407h275.424c12.375 0 22.407 10.032 22.407 22.407v275.424c0 12.375-10.032 22.408-22.407 22.408m20.407-268.866H54.881" class="primary"/></g><path stroke="#121331" stroke-linecap="round" stroke-width="12" d="M25 0h-50" class="primary" style="display:block" transform="rotate(180 122.5 137.5)"/><path stroke="#121331" stroke-linecap="round" stroke-width="12" d="M50 0H-50" class="primary" style="display:block" transform="rotate(180 135 120)"/><path stroke="#121331" stroke-linecap="round" stroke-width="12" d="M60 0H-60" class="primary" style="display:block" transform="rotate(180 140 102.5)"/><g stroke="#121331" stroke-width="39" style="display:block"><path d="M-47.5-64c-63.513 0-114 41.487-114 105v29h323V41c0-63.513-50.487-105-114-105z" class="primary" transform="matrix(.28 0 0 .3 135 254.5)"/><path d="M0 68.5c39.488 0 71.5-30.109 71.5-67.25S39.488-66 0-66-71.5-35.891-71.5 1.25-39.488 68.5 0 68.5z" class="primary" transform="matrix(.28 0 0 .3 135 194.95)"/></g><path stroke="#08A88A" stroke-linecap="round" stroke-width="13.3" d="M-1.007 48.326v-22.34M59.583-12.5H-62.639l.695 72.5c0 11.046 10.342 21.389 21.388 21.389h79.445c11.046 0 21.389-11.176 21.389-22.222zm-105.069-.056v-30.243c0-22.049 19.774-42.173 44.167-42.173s44.166 20.124 44.166 42.173v30.243" class="secondary" style="display:block" transform="matrix(.9 0 0 .9 341 311.612)"/></g><g clip-path="url(#l)" style="display:none"><g mask="url(#m)" style="display:none"><path class="secondary"/><path class="primary"/></g><path class="primary" style="display:none"/><path class="primary" style="display:none"/><path class="primary" style="display:none"/><g clip-path="url(#n)" style="display:none"><path class="primary"/><path class="primary"/></g><path class="secondary" style="display:none"/></g></g></svg>