<?xml version="1.0" encoding="UTF-8"?>
<svg id="Layer_1" xmlns="http://www.w3.org/2000/svg" version="1.1" viewBox="0 0 272.9 211.4">
  <!-- Generator: Adobe Illustrator 29.5.1, SVG Export Plug-In . SVG Version: 2.1.0 Build 141)  -->
  <defs>
    <style>
      .st0 {
        fill: #ff3131;
      }

      .st1 {
        isolation: isolate;
      }

      .st2 {
        fill: #fff;
      }

      .st3 {
        fill: #00bf63;
      }

      .st4 {
        fill: #ffbd59;
      }

      .st5 {
        fill: #38b6ff;
      }
    </style>
  </defs>
  <path class="st5" d="M48.3,76.4l4.2,6.3,46.8,84c11.2,17.1,23.4,31.2,43.5,35.5,28.5,6.2,56.7-8.4,68.8-33.6l49.2-96.5c2.7-5.3.6-11.8-4.7-14.5-.9-.4-1.8-.8-2.7-1-4.6-1-9.6,1.2-11.9,5.6l-21,41.2h-.2c-.6,2.3-3.1,3.9-5.5,3.3-2.5-.5-4-2.9-3.6-5.4h0v-.4c.1,0,.6-1.2.6-1.2l23.4-57.3c2.2-5.5-.4-11.8-5.9-14s-11.8.4-14,5.9l-25.5,62.3h0v.3l-.2.4c-.9,2-3.1,3.2-5.3,2.7-2.4-.5-4-2.9-3.6-5.3l16-73.9c1.2-5.8-2.1-11.7-7.8-13.2-5.9-1.5-11.8,2.2-13.1,8.2l-16.1,74.4h0c-.6,2.4-3.1,3.9-5.5,3.4-2-.4-3.4-2.1-3.6-4v-1.6h0l2.6-67.1c.2-5.9-4.4-10.9-10.3-11.2-5.9-.2-10.9,4.4-11.1,10.3l-2.7,69.7c-.4,12.3,15.1,15.2,15.9,15.5l49,10.2h0l3.3.4c.8,0,1.3.8,1.2,1.6h0c0,.6-.2,1.3-.5,1.9-.2.5-.4.9-.7,1.4-.5.8-1.2,1.5-1.9,2.1h0c-.8.6-1.6,1.1-2.5,1.3-.5.2-1,.3-1.5.3h-1.9l-9.1-1.2-3.3-.4h0c-2.4-.4-5,.2-7.2,1.8-1,.7-1.8,1.6-2.4,2.6-2.3,3.7-1.4,8.6,1.8,11.6l22.8,21.3c1.9,1.8,2,4.8.2,6.7s-4.8,2-6.8.2l-21.7-20.3h0l-.4-.4c-.7-.5-1.7-.5-2.4,0-.4.3-.7.7-.8,1.2-.1.6,0,1.1.3,1.6l20.2,27c1.6,2.1,1.1,5.2-1.1,6.8-2.1,1.5-5.1.9-6.7-1.2l-20.1-26.8c-.7-.8-2-1-2.8-.3-.8.6-1,1.7-.6,2.5v.2c0,0,.1,0,.2.1h0l13.5,26.6c1.2,2.4.3,5.2-2.1,6.4-2.3,1.2-5.2.3-6.4-2.1l-12.4-24.4-.3-.5v-.2h-.1c-.7-.8-2-1-2.8-.3-.9.7-1.1,1.9-.5,2.8h0l7.7,19c1,2.5-.2,5.2-2.6,6.2-2.5,1-5.2-.2-6.2-2.6l-25.3-62.2c-9.8-19.7-38.9-51.3-39.9-52.3s-1.8-1.5-2.8-2.1c-1.8-1.2-3.8-2-6-2.4h0c-2.2-.5-4.4-.5-6.5-.2-1.1.2-2.3.5-3.4.9-1.4.5-2.6,1.1-3.8,1.9h0c-1.5,1-1.9,3-.9,4.5"/>
  <g>
    <g class="st1">
      <g class="st1">
        <path class="st2" d="M21.7,136.5c1.3,0,2.5-.2,3.6-.6,1.1-.4,1.9-.8,2.4-1.2l2.8,5.5c-.7.6-1.8,1.2-3.5,1.8-1.6.6-3.6.9-5.9.9s-4.1-.4-6-1.1c-1.9-.7-3.5-1.8-4.9-3.1s-2.5-2.9-3.3-4.7-1.2-3.8-1.2-5.9.4-4.1,1.2-5.9c.8-1.8,1.9-3.4,3.3-4.8,1.4-1.3,3.1-2.4,4.9-3.1,1.9-.7,3.9-1.1,6-1.1s4.2.3,5.9.9c1.6.6,2.8,1.2,3.5,1.8l-2.8,5.5c-.5-.4-1.4-.8-2.4-1.2-1.1-.4-2.3-.6-3.6-.6s-2.8.2-3.9.7-2,1.1-2.8,1.9c-.7.8-1.3,1.7-1.7,2.7s-.5,2.1-.5,3.2.2,2.2.5,3.2.9,1.9,1.7,2.7c.7.8,1.7,1.4,2.8,1.9s2.4.7,3.9.7h0Z"/>
      </g>
    </g>
    <g class="st1">
      <g class="st1">
        <path class="st2" d="M53.9,113.7h6.5l11.3,28.7h-6.9l-2.1-5.8h-11l-2.1,5.8h-7l11.4-28.7h-.1ZM53.8,130.9h6.7l-3.3-9.4h0l-3.3,9.4h-.1Z"/>
      </g>
    </g>
    <g class="st1">
      <g class="st1">
        <path class="st2" d="M83.8,113.7h11.7c1.7,0,3.2.3,4.5,1s2.3,1.7,3.1,3,1.1,2.9,1.1,4.7-.3,3.3-1,4.4c-.6,1.2-1.4,2-2.3,2.6s-1.7.9-2.5,1l7,11.9h-7.3l-6.2-11.4h-1.6v11.4h-6.5v-28.7h0ZM90.3,126.5h2.9c1.2,0,2.2-.3,3-.8.9-.6,1.3-1.6,1.3-3s-.4-2.4-1.3-3-1.9-.8-3-.8h-2.9v7.7h0Z"/>
      </g>
    </g>
    <g class="st1">
      <g class="st1">
        <path class="st2" d="M120.3,113.7h18.3v5.7h-11.9v5.9h11.7v5.5h-11.7v5.9h11.9v5.7h-18.3v-28.7h0Z"/>
      </g>
    </g>
    <g class="st1">
      <g class="st1">
        <path class="st0" d="M13.2,160.4c.1-.5.4-1,.8-1.6.4-.6.9-1.2,1.6-1.7s1.5-1,2.4-1.3c1-.3,2.1-.5,3.3-.5s2.8.3,4,.8c1.2.6,2.1,1.3,2.7,2.3.7,1,1,2.1,1,3.5s-.1,1.5-.4,2.2-.7,1.2-1.1,1.6c-.5.4-.9.7-1.4.9.6,0,1.2.3,1.8.8s1.1,1.1,1.5,1.9c.4.8.6,1.7.6,2.7,0,1.5-.4,2.8-1.1,4s-1.8,2.1-3.1,2.7c-1.3.7-2.8,1-4.5,1s-3.2-.3-4.4-.9c-1.2-.6-2.2-1.4-2.9-2.3-.7-.9-1.2-1.8-1.4-2.6l4.9-2.4c.1.5.4,1,.7,1.6.3.6.8,1,1.3,1.4s1.2.6,1.9.6,1.3-.1,1.9-.4c.5-.3.9-.7,1.2-1.2.3-.5.4-1.1.4-1.7s-.2-1.2-.5-1.7c-.3-.4-.7-.8-1.3-1-.5-.2-1.1-.3-1.7-.3h-.5v-3.8h.6c.5,0,1-.1,1.5-.3.4-.2.8-.5,1-.9.3-.4.4-.9.4-1.5s-.3-1.4-.8-1.9-1.3-.8-2.2-.8-1.1.1-1.6.3c-.4.2-.8.5-1.1.8-.3.3-.5.6-.7,1-.2.3-.3.6-.3.8l-4.3-2h-.2Z"/>
      </g>
    </g>
    <g class="st1">
      <g class="st1">
        <path class="st4" d="M50.4,163.6c1.2,0,2.4.3,3.6.9,1.1.6,2.1,1.5,2.8,2.7s1.1,2.6,1.1,4.2-.4,3-1.2,4.3-1.8,2.2-3.2,2.9c-1.3.7-2.8,1.1-4.4,1.1s-3.1-.3-4.4-1c-1.3-.7-2.4-1.6-3.2-2.9-.8-1.3-1.2-2.8-1.2-4.5s.3-3.6,1-4.9c.6-1.3,1.3-2.5,2.1-3.4l5.8-7.2h6.2l-7.2,8.5c0-.2.4-.3.7-.4s.8-.2,1.4-.2h.1ZM49.1,175.3c.7,0,1.3-.2,1.9-.5.6-.3,1-.8,1.4-1.4.3-.6.5-1.2.5-1.9s-.2-1.3-.5-1.9c-.3-.6-.8-1-1.4-1.3-.6-.3-1.2-.5-1.9-.5s-1.3.2-1.9.5c-.6.3-1,.8-1.4,1.3-.3.6-.5,1.2-.5,1.9s.2,1.3.5,1.9c.3.6.8,1,1.4,1.4.6.3,1.2.5,1.9.5Z"/>
      </g>
    </g>
    <g class="st1">
      <g class="st1">
        <path class="st3" d="M72.8,172.6c0,.3.3.7.4,1,.2.3.4.6.7.8.3.2.6.4,1,.6s.9.2,1.4.2c1.1,0,2-.4,2.6-1.1s.9-1.6.9-2.8-.3-1.9-.9-2.5-1.4-.9-2.4-.9-1.2.1-1.7.3-.8.5-1.1.8c-.3.3-.5.6-.6.8l-4.4-1.6,2.1-12.5h13.2v4.6h-8.7l-.7,4.4s.2-.2.6-.4c.3-.2.7-.3,1.2-.5.5-.1,1.1-.2,1.8-.2,1.2,0,2.3.3,3.3.8,1.1.5,1.9,1.3,2.6,2.4.7,1.1,1,2.5,1,4.2s-.4,3.2-1.1,4.5-1.8,2.3-3.1,3c-1.3.7-2.8,1-4.5,1s-2.4-.2-3.3-.5c-1-.3-1.8-.7-2.4-1.2-.7-.5-1.2-1-1.6-1.6s-.7-1.2-1-1.7l4.6-2h0Z"/>
      </g>
    </g>
  </g>
</svg>